<svg xmlns="http://www.w3.org/2000/svg" viewBox="0 0 225.96 148.02"><defs><style>.cls-1{fill:#7e161b;}</style></defs><title>create</title><g id="Capa_2" data-name="Capa 2"><g id="Layer_1" data-name="Layer 1"><path class="cls-1" d="M113.46,98.06A225.65,225.65,0,0,0,95.62,83.37c-1.69-1.28-5.41-.67-6.76.73-6.51,6.77-17.28,10.81-28.79,10.81h0c-11.73,0-22.27-4-28.93-10.91-1.32-1.38-4.89-2-6.48-.76C18.11,88.36,11.74,93.42,5.73,99.06c-4,3.76-5.93,8.75-5.71,14.83.34,9.54.21,18.94,0,27.68,0,1.6.1,3.61,1.43,5A6.44,6.44,0,0,0,6.18,148h.18c13.16-.12,26.55-.1,39.5-.09q14.07,0,28.14,0c12.94,0,26.31,0,39.46.08,1.7,0,3.81-.15,5.22-1.58s1.52-3.56,1.49-5c-.2-9-.36-17.73,0-26.47A20.85,20.85,0,0,0,113.46,98.06Zm-1.83,35q0,3.09,0,6.24H8.63V133c0-1.78,0-3.57,0-5.36.05-4.12.11-8.37-.14-12.57a13.09,13.09,0,0,1,4.2-10.88c3.37-3.19,7-6.26,10.53-9.24l3.64-3.09c7.8,6.32,15.78,9.94,24.33,11C67.66,105,81,101.75,92.06,93a3.26,3.26,0,0,1,1.48-.46c4.65,3.8,10,8.22,14.95,12.93,2.28,2.17,3.34,5.21,3.24,9.29C111.56,120.79,111.59,126.75,111.63,133.07Z"/><path class="cls-1" d="M60.07,86.68h0a43.29,43.29,0,0,0,43.39-43.44A43,43,0,0,0,60.07,0H60C35.78,0,16.8,19.13,16.82,43.49A43.29,43.29,0,0,0,60.07,86.68ZM25.44,43.07A34.79,34.79,0,0,1,35.83,18.51,34.17,34.17,0,0,1,60,8.46h.31a34.74,34.74,0,1,1-.49,69.49h-.3A34,34,0,0,1,35.37,67.57,34.46,34.46,0,0,1,25.44,43.07Z"/><polygon class="cls-1" points="225.96 57.6 186.8 57.6 186.8 18.44 167.62 18.44 167.62 57.6 128.46 57.6 128.46 76.78 167.62 76.78 167.62 115.94 186.8 115.94 186.8 76.78 225.96 76.78 225.96 57.6"/></g></g></svg>