<svg xmlns="http://www.w3.org/2000/svg" viewBox="0 0 204.04 743.64"><defs><style>.cls-1{fill:#a15b2a;}.cls-2{fill:#7e161b;}.cls-3{fill:none;stroke:#231f20;stroke-miterlimit:10;stroke-width:0.12px;}.cls-4{fill:#fef0e3;}.cls-5{fill:#c19968;}.cls-6{fill:#cd8938;}.cls-7{fill:#86926c;}.cls-8{fill:#4c513d;}</style></defs><title>hasbaya-patron</title><g id="Capa_2" data-name="Capa 2"><g id="Layer_1" data-name="Layer 1"><path class="cls-1" d="M107.75,500.77V467.31a7.16,7.16,0,0,1,2.11-5.1l23.66-23.66a7.17,7.17,0,0,1,5.1-2.11h33.46a7.17,7.17,0,0,1,5.1,2.11l23.66,23.66a7.16,7.16,0,0,1,2.11,5.1v33.46a7.16,7.16,0,0,1-2.11,5.1l-23.66,23.66a7.16,7.16,0,0,1-5.1,2.11H138.62a7.16,7.16,0,0,1-5.1-2.11l-23.66-23.66A7.16,7.16,0,0,1,107.75,500.77Z"/><path class="cls-2" d="M107.75,500.77V467.31a7.16,7.16,0,0,1,2.11-5.1l23.66-23.66a7.17,7.17,0,0,1,5.1-2.11h33.46a7.17,7.17,0,0,1,5.1,2.11l23.66,23.66a7.16,7.16,0,0,1,2.11,5.1v33.46a7.16,7.16,0,0,1-2.11,5.1l-23.66,23.66a7.16,7.16,0,0,1-5.1,2.11H138.62a7.16,7.16,0,0,1-5.1-2.11l-23.66-23.66A7.16,7.16,0,0,1,107.75,500.77Zm91.51-33.46a3.49,3.49,0,0,0-1-2.48l-23.66-23.66a3.49,3.49,0,0,0-2.48-1H138.62a3.49,3.49,0,0,0-2.48,1l-23.66,23.66a3.49,3.49,0,0,0-1,2.48v33.46a3.49,3.49,0,0,0,1,2.48l23.66,23.66a3.49,3.49,0,0,0,2.48,1h33.46a3.49,3.49,0,0,0,2.48-1l23.66-23.66a3.49,3.49,0,0,0,1-2.48Z"/><polygon class="cls-3" points="178.2 493.5 178.2 484.04 178.2 474.58 164.82 461.19 145.89 461.19 132.51 474.58 132.51 484.04 132.51 493.5 139.2 500.19 145.89 506.88 155.35 506.88 164.82 506.88 171.51 500.19 178.2 493.5"/><rect class="cls-2" x="132.63" y="461.32" width="45.44" height="45.44" transform="translate(607.47 716.45) rotate(135)"/><rect class="cls-2" x="132.63" y="461.32" width="45.44" height="45.44" transform="translate(310.71 968.08) rotate(180)"/><polygon class="cls-2" points="178.2 484.04 194.61 500.3 155.35 484.04 178.2 484.04"/><polygon class="cls-2" points="171.51 500.19 155.35 484.04 171.61 523.29 171.51 500.19"/><polygon class="cls-2" points="155.35 506.88 155.35 484.04 139.09 523.29 155.35 506.88"/><polygon class="cls-2" points="139.2 500.19 116.1 500.3 155.35 484.04 139.2 500.19"/><polygon class="cls-4" points="194.61 500.3 171.51 500.19 155.35 484.04 194.61 500.3"/><polygon class="cls-4" points="171.61 523.29 155.35 506.88 155.35 484.04 171.61 523.29"/><polygon class="cls-4" points="139.09 523.29 139.2 500.19 155.35 484.04 139.09 523.29"/><polygon class="cls-4" points="116.1 500.3 132.51 484.04 155.35 484.04 116.1 500.3"/><polygon class="cls-2" points="132.51 484.04 116.1 467.78 155.35 484.04 132.51 484.04"/><polygon class="cls-2" points="139.2 467.89 155.35 484.04 139.09 444.78 139.2 467.89"/><polygon class="cls-2" points="155.35 461.19 155.35 484.04 171.61 444.78 155.35 461.19"/><polygon class="cls-2" points="171.51 467.89 194.61 467.78 155.35 484.04 171.51 467.89"/><polygon class="cls-4" points="116.1 467.78 139.2 467.89 155.35 484.04 116.1 467.78"/><polygon class="cls-4" points="139.09 444.78 155.35 461.19 155.35 484.04 139.09 444.78"/><polygon class="cls-4" points="171.61 444.78 171.51 467.89 155.35 484.04 171.61 444.78"/><polygon class="cls-4" points="194.61 467.78 178.2 484.04 155.35 484.04 194.61 467.78"/><path class="cls-5" d="M0,175V141.51a7.16,7.16,0,0,1,2.11-5.1l23.66-23.66a7.17,7.17,0,0,1,5.1-2.11H64.34a7.17,7.17,0,0,1,5.1,2.11L93.1,136.41a7.16,7.16,0,0,1,2.11,5.1V175a7.16,7.16,0,0,1-2.11,5.1L69.43,203.73a7.16,7.16,0,0,1-5.1,2.11H30.87a7.16,7.16,0,0,1-5.1-2.11L2.11,180.07A7.16,7.16,0,0,1,0,175Z"/><path class="cls-6" d="M0,175V141.51a7.16,7.16,0,0,1,2.11-5.1l23.66-23.66a7.17,7.17,0,0,1,5.1-2.11H64.34a7.17,7.17,0,0,1,5.1,2.11L93.1,136.41a7.16,7.16,0,0,1,2.11,5.1V175a7.16,7.16,0,0,1-2.11,5.1L69.43,203.73a7.16,7.16,0,0,1-5.1,2.11H30.87a7.16,7.16,0,0,1-5.1-2.11L2.11,180.07A7.16,7.16,0,0,1,0,175Zm91.51-33.46a3.49,3.49,0,0,0-1-2.48L66.82,115.36a3.49,3.49,0,0,0-2.48-1H30.87a3.49,3.49,0,0,0-2.48,1L4.73,139a3.49,3.49,0,0,0-1,2.48V175a3.49,3.49,0,0,0,1,2.48l23.66,23.66a3.49,3.49,0,0,0,2.48,1H64.34a3.49,3.49,0,0,0,2.48-1l23.66-23.66a3.49,3.49,0,0,0,1-2.48Z"/><polygon class="cls-3" points="70.45 167.7 70.45 158.24 70.45 148.78 57.07 135.4 38.14 135.4 24.76 148.78 24.76 158.24 24.76 167.7 31.45 174.39 38.14 181.08 47.6 181.08 57.07 181.08 63.76 174.39 70.45 167.7"/><rect class="cls-6" x="24.88" y="135.52" width="45.44" height="45.44" transform="translate(193.16 236.47) rotate(135)"/><rect class="cls-6" x="24.88" y="135.52" width="45.44" height="45.44" transform="translate(95.21 316.48) rotate(180)"/><polygon class="cls-1" points="70.45 158.24 86.86 174.5 47.6 158.24 70.45 158.24"/><polygon class="cls-1" points="63.76 174.39 47.6 158.24 63.86 197.5 63.76 174.39"/><polygon class="cls-1" points="47.6 181.08 47.6 158.24 31.34 197.5 47.6 181.08"/><polygon class="cls-1" points="31.45 174.39 8.35 174.5 47.6 158.24 31.45 174.39"/><polygon class="cls-4" points="86.86 174.5 63.76 174.39 47.6 158.24 86.86 174.5"/><polygon class="cls-4" points="63.86 197.5 47.6 181.08 47.6 158.24 63.86 197.5"/><polygon class="cls-4" points="31.34 197.5 31.45 174.39 47.6 158.24 31.34 197.5"/><polygon class="cls-4" points="8.35 174.5 24.76 158.24 47.6 158.24 8.35 174.5"/><polygon class="cls-1" points="24.76 158.24 8.35 141.98 47.6 158.24 24.76 158.24"/><polygon class="cls-1" points="31.45 142.09 47.6 158.24 31.34 118.98 31.45 142.09"/><polygon class="cls-1" points="47.6 135.4 47.6 158.24 63.86 118.98 47.6 135.4"/><polygon class="cls-1" points="63.76 142.09 86.86 141.98 47.6 158.24 63.76 142.09"/><polygon class="cls-4" points="8.35 141.98 31.45 142.09 47.6 158.24 8.35 141.98"/><polygon class="cls-4" points="31.34 118.98 47.6 135.4 47.6 158.24 31.34 118.98"/><polygon class="cls-4" points="63.86 118.98 63.76 142.09 47.6 158.24 63.86 118.98"/><polygon class="cls-4" points="86.86 141.98 70.45 158.24 47.6 158.24 86.86 141.98"/><path class="cls-1" d="M108.61,175V141.51a7.16,7.16,0,0,1,2.11-5.1l23.66-23.66a7.17,7.17,0,0,1,5.1-2.11h33.46a7.17,7.17,0,0,1,5.1,2.11l23.66,23.66a7.16,7.16,0,0,1,2.11,5.1V175a7.16,7.16,0,0,1-2.11,5.1L178,203.73a7.16,7.16,0,0,1-5.1,2.11H139.48a7.16,7.16,0,0,1-5.1-2.11l-23.66-23.66A7.16,7.16,0,0,1,108.61,175Z"/><path class="cls-2" d="M108.61,175V141.51a7.16,7.16,0,0,1,2.11-5.1l23.66-23.66a7.17,7.17,0,0,1,5.1-2.11h33.46a7.17,7.17,0,0,1,5.1,2.11l23.66,23.66a7.16,7.16,0,0,1,2.11,5.1V175a7.16,7.16,0,0,1-2.11,5.1L178,203.73a7.16,7.16,0,0,1-5.1,2.11H139.48a7.16,7.16,0,0,1-5.1-2.11l-23.66-23.66A7.16,7.16,0,0,1,108.61,175Zm91.51-33.46a3.49,3.49,0,0,0-1-2.48l-23.66-23.66a3.49,3.49,0,0,0-2.48-1H139.48a3.49,3.49,0,0,0-2.48,1L113.34,139a3.49,3.49,0,0,0-1,2.48V175a3.49,3.49,0,0,0,1,2.48L137,201.12a3.49,3.49,0,0,0,2.48,1h33.46a3.49,3.49,0,0,0,2.48-1l23.66-23.66a3.49,3.49,0,0,0,1-2.48Z"/><polygon class="cls-4" points="142.63 134.69 183.41 158.23 142.61 181.75 142.63 134.69"/><polygon class="cls-1" points="156.23 173.93 142.63 181.77 142.6 166.06 156.22 158.23 156.23 173.93"/><polygon class="cls-5" points="156.23 189.64 142.63 197.48 142.6 181.77 156.22 173.94 156.23 189.64"/><polygon class="cls-4" points="142.61 181.75 129.01 189.59 128.98 173.88 142.6 166.06 142.61 181.75"/><polygon class="cls-4" points="156.21 189.64 169.81 197.48 169.85 181.77 156.22 173.94 156.21 189.64"/><polygon class="cls-5" points="169.81 181.77 183.41 189.61 183.44 173.9 169.82 166.07 169.81 181.77"/><polygon class="cls-4" points="156.23 126.84 142.63 119 142.6 134.71 156.22 142.53 156.23 126.84"/><polygon class="cls-5" points="142.65 134.69 129.05 126.85 129.01 142.56 142.63 150.39 142.65 134.69"/><polygon class="cls-5" points="156.21 126.84 169.81 119 169.85 134.71 156.22 142.53 156.21 126.84"/><polygon class="cls-1" points="142.63 134.69 156.22 142.54 156.22 158.23 142.63 150.39 142.63 134.69"/><polygon class="cls-1" points="183.4 158.23 169.82 166.07 156.22 158.23 169.81 150.39 183.4 158.23"/><polygon class="cls-4" points="197 166.07 183.41 173.92 169.82 166.07 183.41 158.23 197 166.07"/><polygon class="cls-4" points="169.8 134.69 183.4 126.85 183.44 142.56 169.81 150.39 169.8 134.69"/><polygon class="cls-5" points="196.99 150.39 183.41 142.54 169.81 150.39 183.41 158.23 196.99 150.39"/><polygon class="cls-5" points="142.6 166.06 129.02 173.9 115.42 166.06 129.01 158.21 142.6 166.06"/><polygon class="cls-4" points="142.63 150.39 129.05 158.23 115.46 150.39 129.05 142.54 142.63 150.39"/><polygon class="cls-2" points="169.82 166.07 156.23 173.93 169.81 181.77 169.82 166.07"/><polygon class="cls-2" points="142.63 150.39 129.05 158.23 142.6 166.06 142.63 150.39"/><polygon class="cls-2" points="169.81 150.39 156.22 142.54 169.81 134.69 169.81 150.39"/><path class="cls-5" d="M0,712.77V679.31a7.16,7.16,0,0,1,2.11-5.1l23.66-23.66a7.17,7.17,0,0,1,5.1-2.11H64.34a7.17,7.17,0,0,1,5.1,2.11L93.1,674.21a7.16,7.16,0,0,1,2.11,5.1v33.46a7.16,7.16,0,0,1-2.11,5.1L69.43,741.53a7.16,7.16,0,0,1-5.1,2.11H30.87a7.16,7.16,0,0,1-5.1-2.11L2.11,717.87A7.16,7.16,0,0,1,0,712.77Z"/><path class="cls-6" d="M0,712.77V679.31a7.16,7.16,0,0,1,2.11-5.1l23.66-23.66a7.17,7.17,0,0,1,5.1-2.11H64.34a7.17,7.17,0,0,1,5.1,2.11L93.1,674.21a7.16,7.16,0,0,1,2.11,5.1v33.46a7.16,7.16,0,0,1-2.11,5.1L69.43,741.53a7.16,7.16,0,0,1-5.1,2.11H30.87a7.16,7.16,0,0,1-5.1-2.11L2.11,717.87A7.16,7.16,0,0,1,0,712.77Zm91.51-33.46a3.49,3.49,0,0,0-1-2.48L66.82,653.16a3.49,3.49,0,0,0-2.48-1H30.87a3.49,3.49,0,0,0-2.48,1L4.73,676.82a3.49,3.49,0,0,0-1,2.48v33.46a3.49,3.49,0,0,0,1,2.48l23.66,23.66a3.49,3.49,0,0,0,2.48,1H64.34a3.49,3.49,0,0,0,2.48-1l23.66-23.66a3.49,3.49,0,0,0,1-2.48Z"/><polygon class="cls-4" points="34.03 672.49 74.8 696.03 34 719.55 34.03 672.49"/><polygon class="cls-5" points="47.63 711.73 34.03 719.57 33.99 703.86 47.61 696.03 47.63 711.73"/><polygon class="cls-1" points="47.63 727.44 34.03 735.28 33.99 719.57 47.61 711.74 47.63 727.44"/><polygon class="cls-4" points="34 719.55 20.4 727.39 20.37 711.68 33.99 703.86 34 719.55"/><polygon class="cls-4" points="47.6 727.44 61.2 735.28 61.24 719.57 47.62 711.74 47.6 727.44"/><polygon class="cls-1" points="61.2 719.57 74.8 727.41 74.83 711.7 61.21 703.87 61.2 719.57"/><polygon class="cls-4" points="47.63 664.64 34.03 656.8 33.99 672.51 47.61 680.33 47.63 664.64"/><polygon class="cls-1" points="34.04 672.49 20.44 664.65 20.4 680.36 34.03 688.19 34.04 672.49"/><polygon class="cls-1" points="47.6 664.64 61.2 656.8 61.24 672.51 47.62 680.33 47.6 664.64"/><polygon class="cls-5" points="34.03 672.49 47.61 680.34 47.61 696.03 34.03 688.19 34.03 672.49"/><polygon class="cls-5" points="74.79 696.03 61.21 703.87 47.61 696.03 61.21 688.19 74.79 696.03"/><polygon class="cls-4" points="88.39 703.87 74.8 711.72 61.21 703.87 74.8 696.03 88.39 703.87"/><polygon class="cls-4" points="61.2 672.49 74.79 664.65 74.83 680.36 61.2 688.19 61.2 672.49"/><polygon class="cls-1" points="88.38 688.19 74.8 680.34 61.21 688.19 74.8 696.03 88.38 688.19"/><polygon class="cls-1" points="33.99 703.86 20.41 711.7 6.81 703.86 20.41 696.01 33.99 703.86"/><polygon class="cls-4" points="34.03 688.19 20.44 696.03 6.85 688.19 20.44 680.34 34.03 688.19"/><polygon class="cls-6" points="61.21 703.87 47.63 711.73 61.2 719.57 61.21 703.87"/><polygon class="cls-6" points="34.03 688.19 20.44 696.03 33.99 703.86 34.03 688.19"/><polygon class="cls-6" points="61.21 688.19 47.61 680.34 61.2 672.49 61.21 688.19"/><path class="cls-1" d="M108.61,283.4V249.94a7.16,7.16,0,0,1,2.11-5.1l23.66-23.66a7.17,7.17,0,0,1,5.1-2.11h33.46a7.17,7.17,0,0,1,5.1,2.11l23.66,23.66a7.16,7.16,0,0,1,2.11,5.1V283.4a7.16,7.16,0,0,1-2.11,5.1L178,312.16a7.16,7.16,0,0,1-5.1,2.11H139.48a7.16,7.16,0,0,1-5.1-2.11L110.72,288.5A7.16,7.16,0,0,1,108.61,283.4Z"/><path class="cls-2" d="M108.61,283.4V249.94a7.16,7.16,0,0,1,2.11-5.1l23.66-23.66a7.17,7.17,0,0,1,5.1-2.11h33.46a7.17,7.17,0,0,1,5.1,2.11l23.66,23.66a7.16,7.16,0,0,1,2.11,5.1V283.4a7.16,7.16,0,0,1-2.11,5.1L178,312.16a7.16,7.16,0,0,1-5.1,2.11H139.48a7.16,7.16,0,0,1-5.1-2.11L110.72,288.5A7.16,7.16,0,0,1,108.61,283.4Zm91.51-33.46a3.49,3.49,0,0,0-1-2.48l-23.66-23.66a3.49,3.49,0,0,0-2.48-1H139.48a3.49,3.49,0,0,0-2.48,1l-23.66,23.66a3.49,3.49,0,0,0-1,2.48V283.4a3.49,3.49,0,0,0,1,2.48L137,309.55a3.49,3.49,0,0,0,2.48,1h33.46a3.49,3.49,0,0,0,2.48-1l23.66-23.66a3.49,3.49,0,0,0,1-2.48Z"/><polygon class="cls-3" points="179.06 276.13 179.06 266.67 179.06 257.21 165.68 243.83 146.75 243.83 133.37 257.21 133.37 266.67 133.37 276.13 140.06 282.82 146.75 289.51 156.21 289.51 165.68 289.51 172.37 282.82 179.06 276.13"/><rect class="cls-2" x="133.49" y="243.95" width="45.44" height="45.44" transform="translate(455.24 344.78) rotate(135)"/><rect class="cls-2" x="133.49" y="243.95" width="45.44" height="45.44" transform="translate(312.42 533.34) rotate(180)"/><polygon class="cls-5" points="179.06 266.67 195.47 282.93 156.21 266.67 179.06 266.67"/><polygon class="cls-5" points="172.37 282.82 156.21 266.67 172.47 305.93 172.37 282.82"/><polygon class="cls-5" points="156.21 289.51 156.21 266.67 139.95 305.93 156.21 289.51"/><polygon class="cls-5" points="140.06 282.82 116.96 282.93 156.21 266.67 140.06 282.82"/><polygon class="cls-4" points="195.47 282.93 172.37 282.82 156.21 266.67 195.47 282.93"/><polygon class="cls-4" points="172.47 305.93 156.21 289.51 156.21 266.67 172.47 305.93"/><polygon class="cls-4" points="139.95 305.93 140.06 282.82 156.21 266.67 139.95 305.93"/><polygon class="cls-4" points="116.96 282.93 133.37 266.67 156.21 266.67 116.96 282.93"/><polygon class="cls-5" points="133.37 266.67 116.96 250.41 156.21 266.67 133.37 266.67"/><polygon class="cls-5" points="140.06 250.52 156.21 266.67 139.95 227.41 140.06 250.52"/><polygon class="cls-5" points="156.21 243.83 156.21 266.67 172.47 227.41 156.21 243.83"/><polygon class="cls-5" points="172.37 250.52 195.47 250.41 156.21 266.67 172.37 250.52"/><polygon class="cls-4" points="116.96 250.41 140.06 250.52 156.21 266.67 116.96 250.41"/><polygon class="cls-4" points="139.95 227.41 156.21 243.83 156.21 266.67 139.95 227.41"/><polygon class="cls-4" points="172.47 227.41 172.37 250.52 156.21 266.67 172.47 227.41"/><polygon class="cls-4" points="195.47 250.41 179.06 266.67 156.21 266.67 195.47 250.41"/><path class="cls-5" d="M0,64.34V30.87a7.16,7.16,0,0,1,2.11-5.1L25.77,2.11A7.17,7.17,0,0,1,30.87,0H64.34a7.17,7.17,0,0,1,5.1,2.11L93.1,25.77a7.16,7.16,0,0,1,2.11,5.1V64.34a7.16,7.16,0,0,1-2.11,5.1L69.43,93.1a7.16,7.16,0,0,1-5.1,2.11H30.87a7.16,7.16,0,0,1-5.1-2.11L2.11,69.43A7.16,7.16,0,0,1,0,64.34Z"/><path class="cls-2" d="M0,64.34V30.87a7.16,7.16,0,0,1,2.11-5.1L25.77,2.11A7.17,7.17,0,0,1,30.87,0H64.34a7.17,7.17,0,0,1,5.1,2.11L93.1,25.77a7.16,7.16,0,0,1,2.11,5.1V64.34a7.16,7.16,0,0,1-2.11,5.1L69.43,93.1a7.16,7.16,0,0,1-5.1,2.11H30.87a7.16,7.16,0,0,1-5.1-2.11L2.11,69.43A7.16,7.16,0,0,1,0,64.34ZM91.51,30.87a3.49,3.49,0,0,0-1-2.48L66.82,4.73a3.49,3.49,0,0,0-2.48-1H30.87a3.49,3.49,0,0,0-2.48,1L4.73,28.39a3.49,3.49,0,0,0-1,2.48V64.34a3.49,3.49,0,0,0,1,2.48L28.39,90.48a3.49,3.49,0,0,0,2.48,1H64.34a3.49,3.49,0,0,0,2.48-1L90.48,66.82a3.49,3.49,0,0,0,1-2.48Z"/><polygon class="cls-4" points="34.03 24.06 74.8 47.59 34 71.12 34.03 24.06"/><polygon class="cls-5" points="47.63 63.29 34.03 71.13 33.99 55.42 47.61 47.59 47.63 63.29"/><polygon class="cls-1" points="47.63 79 34.03 86.84 33.99 71.13 47.61 63.31 47.63 79"/><polygon class="cls-4" points="34 71.12 20.4 78.96 20.37 63.24 33.99 55.42 34 71.12"/><polygon class="cls-4" points="47.6 79 61.2 86.84 61.24 71.13 47.62 63.31 47.6 79"/><polygon class="cls-1" points="61.2 71.13 74.8 78.97 74.83 63.26 61.21 55.44 61.2 71.13"/><polygon class="cls-4" points="47.63 16.2 34.03 8.36 33.99 24.07 47.61 31.9 47.63 16.2"/><polygon class="cls-1" points="34.04 24.06 20.44 16.22 20.4 31.93 34.03 39.75 34.04 24.06"/><polygon class="cls-1" points="47.6 16.2 61.2 8.36 61.24 24.07 47.62 31.9 47.6 16.2"/><polygon class="cls-5" points="34.03 24.06 47.61 31.9 47.61 47.59 34.03 39.75 34.03 24.06"/><polygon class="cls-5" points="74.79 47.59 61.21 55.44 47.61 47.59 61.21 39.75 74.79 47.59"/><polygon class="cls-4" points="88.39 55.44 74.8 63.28 61.21 55.44 74.8 47.59 88.39 55.44"/><polygon class="cls-4" points="61.2 24.05 74.79 16.21 74.83 31.93 61.2 39.75 61.2 24.05"/><polygon class="cls-1" points="88.38 39.75 74.8 31.91 61.21 39.75 74.8 47.59 88.38 39.75"/><polygon class="cls-1" points="33.99 55.42 20.41 63.26 6.81 55.42 20.41 47.58 33.99 55.42"/><polygon class="cls-4" points="34.03 39.75 20.44 47.59 6.85 39.75 20.44 31.91 34.03 39.75"/><polygon class="cls-2" points="61.21 55.44 47.63 63.29 61.2 71.13 61.21 55.44"/><polygon class="cls-2" points="34.03 39.75 20.44 47.59 33.99 55.42 34.03 39.75"/><polygon class="cls-2" points="61.21 39.75 47.61 31.9 61.2 24.06 61.21 39.75"/><path class="cls-7" d="M1.1,606.33V573.64a7,7,0,0,1,2.06-5l23.11-23.11a7,7,0,0,1,5-2.06H63.95a7,7,0,0,1,5,2.06L92,568.66a7,7,0,0,1,2.06,5v32.69a7,7,0,0,1-2.06,5L68.93,634.42a7,7,0,0,1-5,2.06H31.26a7,7,0,0,1-5-2.06L3.16,611.31A7,7,0,0,1,1.1,606.33Z"/><path class="cls-8" d="M0,606.72V573.25a7.16,7.16,0,0,1,2.11-5.1l23.66-23.66a7.17,7.17,0,0,1,5.1-2.11H64.34a7.17,7.17,0,0,1,5.1,2.11L93.1,568.15a7.16,7.16,0,0,1,2.11,5.1v33.46a7.16,7.16,0,0,1-2.11,5.1L69.43,635.48a7.16,7.16,0,0,1-5.1,2.11H30.87a7.16,7.16,0,0,1-5.1-2.11L2.11,611.81A7.16,7.16,0,0,1,0,606.72Zm91.51-33.46a3.49,3.49,0,0,0-1-2.48L66.82,547.11a3.49,3.49,0,0,0-2.48-1H30.87a3.49,3.49,0,0,0-2.48,1L4.73,570.77a3.49,3.49,0,0,0-1,2.48v33.46a3.49,3.49,0,0,0,1,2.48l23.66,23.66a3.49,3.49,0,0,0,2.48,1H64.34a3.49,3.49,0,0,0,2.48-1L90.48,609.2a3.49,3.49,0,0,0,1-2.48Z"/><polygon class="cls-3" points="70.45 599.45 70.45 589.98 70.45 580.52 57.07 567.14 38.14 567.14 24.76 580.52 24.76 589.98 24.76 599.45 31.45 606.14 38.14 612.83 47.6 612.83 57.07 612.83 63.76 606.14 70.45 599.45"/><rect class="cls-5" x="24.88" y="567.26" width="45.44" height="45.44" transform="translate(498.45 973.5) rotate(135)"/><rect class="cls-5" x="24.88" y="567.26" width="45.44" height="45.44" transform="translate(95.21 1179.97) rotate(180)"/><polygon class="cls-8" points="70.45 589.98 86.86 606.24 47.6 589.98 70.45 589.98"/><polygon class="cls-8" points="63.76 606.14 47.6 589.98 63.86 629.24 63.76 606.14"/><polygon class="cls-8" points="47.6 612.83 47.6 589.98 31.34 629.24 47.6 612.83"/><polygon class="cls-8" points="31.45 606.14 8.35 606.24 47.6 589.98 31.45 606.14"/><polygon class="cls-4" points="86.86 606.24 63.76 606.14 47.6 589.98 86.86 606.24"/><polygon class="cls-4" points="63.86 629.24 47.6 612.83 47.6 589.98 63.86 629.24"/><polygon class="cls-4" points="31.34 629.24 31.45 606.14 47.6 589.98 31.34 629.24"/><polygon class="cls-4" points="8.35 606.24 24.76 589.98 47.6 589.98 8.35 606.24"/><polygon class="cls-8" points="24.76 589.98 8.35 573.72 47.6 589.98 24.76 589.98"/><polygon class="cls-8" points="31.45 573.83 47.6 589.98 31.34 550.73 31.45 573.83"/><polygon class="cls-8" points="47.6 567.14 47.6 589.98 63.86 550.73 47.6 567.14"/><polygon class="cls-8" points="63.76 573.83 86.86 573.72 47.6 589.98 63.76 573.83"/><polygon class="cls-4" points="8.35 573.72 31.45 573.83 47.6 589.98 8.35 573.72"/><polygon class="cls-4" points="31.34 550.73 47.6 567.14 47.6 589.98 31.34 550.73"/><polygon class="cls-4" points="63.86 550.73 63.76 573.83 47.6 589.98 63.86 550.73"/><polygon class="cls-4" points="86.86 573.72 70.45 589.98 47.6 589.98 86.86 573.72"/><path class="cls-7" d="M1.25,283V250.38a7,7,0,0,1,2.06-5l23-23a7,7,0,0,1,5-2.06H63.9a7,7,0,0,1,5,2.06l23,23a7,7,0,0,1,2.06,5V283a7,7,0,0,1-2.06,5l-23,23a7,7,0,0,1-5,2.06H31.31a7,7,0,0,1-5-2.06l-23-23A7,7,0,0,1,1.25,283Z"/><path class="cls-8" d="M0,283.4V249.94a7.16,7.16,0,0,1,2.11-5.1l23.66-23.66a7.17,7.17,0,0,1,5.1-2.11H64.34a7.17,7.17,0,0,1,5.1,2.11L93.1,244.84a7.16,7.16,0,0,1,2.11,5.1V283.4a7.16,7.16,0,0,1-2.11,5.1L69.43,312.16a7.16,7.16,0,0,1-5.1,2.11H30.87a7.16,7.16,0,0,1-5.1-2.11L2.11,288.5A7.16,7.16,0,0,1,0,283.4Zm91.51-33.46a3.49,3.49,0,0,0-1-2.48L66.82,223.79a3.49,3.49,0,0,0-2.48-1H30.87a3.49,3.49,0,0,0-2.48,1L4.73,247.45a3.49,3.49,0,0,0-1,2.48V283.4a3.49,3.49,0,0,0,1,2.48l23.66,23.66a3.49,3.49,0,0,0,2.48,1H64.34a3.49,3.49,0,0,0,2.48-1l23.66-23.66a3.49,3.49,0,0,0,1-2.48Z"/><polygon class="cls-4" points="34.03 243.12 74.8 266.66 34 290.18 34.03 243.12"/><polygon class="cls-7" points="47.63 282.36 34.03 290.2 33.99 274.49 47.61 266.66 47.63 282.36"/><polygon class="cls-5" points="47.63 298.07 34.03 305.91 33.99 290.2 47.61 282.37 47.63 298.07"/><polygon class="cls-4" points="34 290.18 20.4 298.02 20.37 282.31 33.99 274.49 34 290.18"/><polygon class="cls-4" points="47.6 298.07 61.2 305.91 61.24 290.2 47.62 282.37 47.6 298.07"/><polygon class="cls-5" points="61.2 290.2 74.8 298.04 74.83 282.33 61.21 274.5 61.2 290.2"/><polygon class="cls-4" points="47.63 235.27 34.03 227.43 33.99 243.14 47.61 250.96 47.63 235.27"/><polygon class="cls-5" points="34.04 243.12 20.44 235.28 20.4 250.99 34.03 258.82 34.04 243.12"/><polygon class="cls-5" points="47.6 235.27 61.2 227.43 61.24 243.14 47.62 250.96 47.6 235.27"/><polygon class="cls-7" points="34.03 243.12 47.61 250.97 47.61 266.66 34.03 258.82 34.03 243.12"/><polygon class="cls-7" points="74.79 266.66 61.21 274.5 47.61 266.66 61.21 258.82 74.79 266.66"/><polygon class="cls-4" points="88.39 274.5 74.8 282.35 61.21 274.5 74.8 266.66 88.39 274.5"/><polygon class="cls-4" points="61.2 243.12 74.79 235.28 74.83 250.99 61.2 258.82 61.2 243.12"/><polygon class="cls-5" points="88.38 258.82 74.8 250.97 61.21 258.82 74.8 266.66 88.38 258.82"/><polygon class="cls-5" points="33.99 274.49 20.41 282.33 6.81 274.49 20.41 266.64 33.99 274.49"/><polygon class="cls-4" points="34.03 258.82 20.44 266.66 6.85 258.82 20.44 250.97 34.03 258.82"/><polygon class="cls-8" points="61.21 274.5 47.63 282.36 61.2 290.2 61.21 274.5"/><polygon class="cls-8" points="34.03 258.82 20.44 266.66 33.99 274.49 34.03 258.82"/><polygon class="cls-8" points="61.21 258.82 47.61 250.97 61.2 243.12 61.21 258.82"/><path class="cls-5" d="M0,499.32V465.86a7.16,7.16,0,0,1,2.11-5.1L25.77,437.1a7.17,7.17,0,0,1,5.1-2.11H64.34a7.17,7.17,0,0,1,5.1,2.11L93.1,460.76a7.16,7.16,0,0,1,2.11,5.1v33.46a7.16,7.16,0,0,1-2.11,5.1L69.43,528.08a7.16,7.16,0,0,1-5.1,2.11H30.87a7.16,7.16,0,0,1-5.1-2.11L2.11,504.42A7.16,7.16,0,0,1,0,499.32Z"/><path class="cls-2" d="M0,499.32V465.86a7.16,7.16,0,0,1,2.11-5.1L25.77,437.1a7.17,7.17,0,0,1,5.1-2.11H64.34a7.17,7.17,0,0,1,5.1,2.11L93.1,460.76a7.16,7.16,0,0,1,2.11,5.1v33.46a7.16,7.16,0,0,1-2.11,5.1L69.43,528.08a7.16,7.16,0,0,1-5.1,2.11H30.87a7.16,7.16,0,0,1-5.1-2.11L2.11,504.42A7.16,7.16,0,0,1,0,499.32Zm91.51-33.46a3.49,3.49,0,0,0-1-2.48L66.82,439.71a3.49,3.49,0,0,0-2.48-1H30.87a3.49,3.49,0,0,0-2.48,1L4.73,463.37a3.49,3.49,0,0,0-1,2.48v33.46a3.49,3.49,0,0,0,1,2.48l23.66,23.66a3.49,3.49,0,0,0,2.48,1H64.34a3.49,3.49,0,0,0,2.48-1l23.66-23.66a3.49,3.49,0,0,0,1-2.48Z"/><polygon class="cls-4" points="34.03 459.04 74.8 482.58 34 506.1 34.03 459.04"/><polygon class="cls-2" points="47.63 498.28 34.03 506.12 33.99 490.41 47.61 482.58 47.63 498.28"/><polygon class="cls-1" points="47.63 513.99 34.03 521.83 33.99 506.12 47.61 498.29 47.63 513.99"/><polygon class="cls-4" points="34 506.1 20.4 513.94 20.37 498.23 33.99 490.41 34 506.1"/><polygon class="cls-4" points="47.6 513.99 61.2 521.83 61.24 506.12 47.62 498.29 47.6 513.99"/><polygon class="cls-1" points="61.2 506.12 74.8 513.96 74.83 498.25 61.21 490.42 61.2 506.12"/><polygon class="cls-4" points="47.63 451.19 34.03 443.35 33.99 459.06 47.61 466.88 47.63 451.19"/><polygon class="cls-1" points="34.04 459.04 20.44 451.2 20.4 466.91 34.03 474.74 34.04 459.04"/><polygon class="cls-1" points="47.6 451.19 61.2 443.35 61.24 459.06 47.62 466.88 47.6 451.19"/><polygon class="cls-2" points="34.03 459.04 47.61 466.89 47.61 482.58 34.03 474.74 34.03 459.04"/><polygon class="cls-2" points="74.79 482.58 61.21 490.42 47.61 482.58 61.21 474.74 74.79 482.58"/><polygon class="cls-4" points="88.39 490.42 74.8 498.27 61.21 490.42 74.8 482.58 88.39 490.42"/><polygon class="cls-4" points="61.2 459.04 74.79 451.2 74.83 466.91 61.2 474.74 61.2 459.04"/><polygon class="cls-1" points="88.38 474.74 74.8 466.89 61.21 474.74 74.8 482.58 88.38 474.74"/><polygon class="cls-1" points="33.99 490.41 20.41 498.25 6.81 490.41 20.41 482.56 33.99 490.41"/><polygon class="cls-4" points="34.03 474.74 20.44 482.58 6.85 474.74 20.44 466.89 34.03 474.74"/><polygon class="cls-5" points="61.21 490.42 47.63 498.28 61.2 506.12 61.21 490.42"/><polygon class="cls-5" points="34.03 474.74 20.44 482.58 33.99 490.41 34.03 474.74"/><polygon class="cls-5" points="61.21 474.74 47.61 466.89 61.2 459.04 61.21 474.74"/><path class="cls-5" d="M1.1,389.71V357a7,7,0,0,1,2.06-5l23.11-23.11a7,7,0,0,1,5-2.06H63.95a7,7,0,0,1,5,2.06L92,352a7,7,0,0,1,2.06,5v32.69a7,7,0,0,1-2.06,5L68.93,417.81a7,7,0,0,1-5,2.06H31.26a7,7,0,0,1-5-2.06L3.16,394.69A7,7,0,0,1,1.1,389.71Z"/><path class="cls-1" d="M0,390.1V356.63a7.16,7.16,0,0,1,2.11-5.1l23.66-23.66a7.17,7.17,0,0,1,5.1-2.11H64.34a7.17,7.17,0,0,1,5.1,2.11L93.1,351.53a7.16,7.16,0,0,1,2.11,5.1V390.1a7.16,7.16,0,0,1-2.11,5.1L69.43,418.86a7.16,7.16,0,0,1-5.1,2.11H30.87a7.16,7.16,0,0,1-5.1-2.11L2.11,395.2A7.16,7.16,0,0,1,0,390.1Zm91.51-33.46a3.49,3.49,0,0,0-1-2.48L66.82,330.49a3.49,3.49,0,0,0-2.48-1H30.87a3.49,3.49,0,0,0-2.48,1L4.73,354.15a3.49,3.49,0,0,0-1,2.48V390.1a3.49,3.49,0,0,0,1,2.48l23.66,23.66a3.49,3.49,0,0,0,2.48,1H64.34a3.49,3.49,0,0,0,2.48-1l23.66-23.66a3.49,3.49,0,0,0,1-2.48Z"/><polygon class="cls-3" points="70.45 382.83 70.45 373.37 70.45 363.9 57.07 350.52 38.14 350.52 24.76 363.9 24.76 373.37 24.76 382.83 31.45 389.52 38.14 396.21 47.6 396.21 57.07 396.21 63.76 389.52 70.45 382.83"/><rect class="cls-2" x="24.88" y="350.65" width="45.44" height="45.44" transform="translate(345.27 603.71) rotate(135)"/><rect class="cls-2" x="24.88" y="350.65" width="45.44" height="45.44" transform="translate(95.21 746.73) rotate(180)"/><polygon class="cls-1" points="70.45 373.37 86.86 389.63 47.6 373.37 70.45 373.37"/><polygon class="cls-1" points="63.76 389.52 47.6 373.37 63.86 412.62 63.76 389.52"/><polygon class="cls-1" points="47.6 396.21 47.6 373.37 31.34 412.62 47.6 396.21"/><polygon class="cls-1" points="31.45 389.52 8.35 389.63 47.6 373.37 31.45 389.52"/><polygon class="cls-4" points="86.86 389.63 63.76 389.52 47.6 373.37 86.86 389.63"/><polygon class="cls-4" points="63.86 412.62 47.6 396.21 47.6 373.37 63.86 412.62"/><polygon class="cls-4" points="31.34 412.62 31.45 389.52 47.6 373.37 31.34 412.62"/><polygon class="cls-4" points="8.35 389.63 24.76 373.37 47.6 373.37 8.35 389.63"/><polygon class="cls-1" points="24.76 373.37 8.35 357.11 47.6 373.37 24.76 373.37"/><polygon class="cls-1" points="31.45 357.21 47.6 373.37 31.34 334.11 31.45 357.21"/><polygon class="cls-1" points="47.6 350.52 47.6 373.37 63.86 334.11 47.6 350.52"/><polygon class="cls-1" points="63.76 357.21 86.86 357.11 47.6 373.37 63.76 357.21"/><polygon class="cls-4" points="8.35 357.11 31.45 357.21 47.6 373.37 8.35 357.11"/><polygon class="cls-4" points="31.34 334.11 47.6 350.52 47.6 373.37 31.34 334.11"/><polygon class="cls-4" points="63.86 334.11 63.76 357.21 47.6 373.37 63.86 334.11"/><polygon class="cls-4" points="86.86 357.11 70.45 373.37 47.6 373.37 86.86 357.11"/><path class="cls-5" d="M110.08,606.28V573.69a7,7,0,0,1,2.06-5l23-23a7,7,0,0,1,5-2.06h32.59a7,7,0,0,1,5,2.06l23,23a7,7,0,0,1,2.06,5v32.59a7,7,0,0,1-2.06,5l-23,23a7,7,0,0,1-5,2.06H140.14a7,7,0,0,1-5-2.06l-23-23A7,7,0,0,1,110.08,606.28Z"/><path class="cls-1" d="M108.83,606.72V573.25a7.16,7.16,0,0,1,2.11-5.1l23.66-23.66a7.17,7.17,0,0,1,5.1-2.11h33.46a7.17,7.17,0,0,1,5.1,2.11l23.66,23.66a7.16,7.16,0,0,1,2.11,5.1v33.46a7.16,7.16,0,0,1-2.11,5.1l-23.66,23.66a7.16,7.16,0,0,1-5.1,2.11H139.7a7.16,7.16,0,0,1-5.1-2.11l-23.66-23.66A7.16,7.16,0,0,1,108.83,606.72Zm91.51-33.46a3.49,3.49,0,0,0-1-2.48l-23.66-23.66a3.49,3.49,0,0,0-2.48-1H139.7a3.49,3.49,0,0,0-2.48,1l-23.66,23.66a3.49,3.49,0,0,0-1,2.48v33.46a3.49,3.49,0,0,0,1,2.48l23.66,23.66a3.49,3.49,0,0,0,2.48,1h33.46a3.49,3.49,0,0,0,2.48-1l23.66-23.66a3.49,3.49,0,0,0,1-2.48Z"/><polygon class="cls-4" points="142.86 566.44 183.63 589.98 142.83 613.5 142.86 566.44"/><polygon class="cls-1" points="156.46 605.67 142.86 613.51 142.82 597.8 156.45 589.98 156.46 605.67"/><polygon class="cls-7" points="156.46 621.38 142.86 629.22 142.82 613.51 156.45 605.69 156.46 621.38"/><polygon class="cls-4" points="142.83 613.5 129.23 621.34 129.2 605.63 142.82 597.8 142.83 613.5"/><polygon class="cls-4" points="156.44 621.38 170.03 629.22 170.07 613.51 156.45 605.69 156.44 621.38"/><polygon class="cls-7" points="170.03 613.51 183.63 621.35 183.66 605.64 170.04 597.82 170.03 613.51"/><polygon class="cls-4" points="156.46 558.58 142.86 550.74 142.82 566.45 156.45 574.28 156.46 558.58"/><polygon class="cls-7" points="142.87 566.44 129.27 558.6 129.23 574.31 142.86 582.13 142.87 566.44"/><polygon class="cls-7" points="156.44 558.58 170.03 550.74 170.07 566.45 156.45 574.28 156.44 558.58"/><polygon class="cls-1" points="142.86 566.44 156.44 574.28 156.45 589.98 142.86 582.13 142.86 566.44"/><polygon class="cls-1" points="183.62 589.98 170.04 597.82 156.45 589.98 170.04 582.13 183.62 589.98"/><polygon class="cls-4" points="197.22 597.82 183.63 605.66 170.04 597.82 183.63 589.97 197.22 597.82"/><polygon class="cls-4" points="170.03 566.43 183.63 558.59 183.66 574.3 170.04 582.13 170.03 566.43"/><polygon class="cls-7" points="197.22 582.13 183.63 574.29 170.04 582.13 183.63 589.98 197.22 582.13"/><polygon class="cls-7" points="142.82 597.8 129.24 605.64 115.64 597.8 129.24 589.96 142.82 597.8"/><polygon class="cls-4" points="142.86 582.13 129.27 589.98 115.68 582.13 129.27 574.29 142.86 582.13"/><polygon class="cls-5" points="170.04 597.82 156.46 605.67 170.03 613.51 170.04 597.82"/><polygon class="cls-5" points="142.86 582.13 129.27 589.98 142.82 597.8 142.86 582.13"/><polygon class="cls-5" points="170.04 582.13 156.44 574.28 170.03 566.44 170.04 582.13"/><path class="cls-5" d="M109.93,63.95V31.26a7,7,0,0,1,2.06-5L135.11,3.16a7,7,0,0,1,5-2.06h32.69a7,7,0,0,1,5,2.06l23.11,23.11a7,7,0,0,1,2.06,5V63.95a7,7,0,0,1-2.06,5L177.76,92a7,7,0,0,1-5,2.06H140.09a7,7,0,0,1-5-2.06L112,68.93A7,7,0,0,1,109.93,63.95Z"/><path class="cls-8" d="M108.83,64.34V30.87a7.16,7.16,0,0,1,2.11-5.1L134.6,2.11A7.17,7.17,0,0,1,139.7,0h33.46a7.17,7.17,0,0,1,5.1,2.11l23.66,23.66a7.16,7.16,0,0,1,2.11,5.1V64.34a7.16,7.16,0,0,1-2.11,5.1L178.27,93.1a7.16,7.16,0,0,1-5.1,2.11H139.7a7.16,7.16,0,0,1-5.1-2.11L110.94,69.43A7.16,7.16,0,0,1,108.83,64.34Zm91.51-33.46a3.49,3.49,0,0,0-1-2.48L175.65,4.73a3.49,3.49,0,0,0-2.48-1H139.7a3.49,3.49,0,0,0-2.48,1L113.56,28.39a3.49,3.49,0,0,0-1,2.48V64.34a3.49,3.49,0,0,0,1,2.48l23.66,23.66a3.49,3.49,0,0,0,2.48,1h33.46a3.49,3.49,0,0,0,2.48-1l23.66-23.66a3.49,3.49,0,0,0,1-2.48Z"/><polygon class="cls-3" points="179.28 57.07 179.28 47.6 179.28 38.14 165.9 24.76 146.97 24.76 133.59 38.14 133.59 47.6 133.59 57.07 140.28 63.76 146.97 70.45 156.43 70.45 165.9 70.45 172.59 63.76 179.28 57.07"/><rect class="cls-8" x="133.72" y="24.88" width="45.44" height="45.44" transform="translate(300.71 -29.35) rotate(135)"/><rect class="cls-8" x="133.72" y="24.88" width="45.44" height="45.44" transform="translate(312.87 95.21) rotate(180)"/><polygon class="cls-7" points="179.28 47.6 195.69 63.86 156.43 47.6 179.28 47.6"/><polygon class="cls-7" points="172.59 63.76 156.43 47.6 172.69 86.86 172.59 63.76"/><polygon class="cls-7" points="156.43 70.45 156.43 47.6 140.18 86.86 156.43 70.45"/><polygon class="cls-7" points="140.28 63.76 117.18 63.86 156.43 47.6 140.28 63.76"/><polygon class="cls-4" points="195.69 63.86 172.59 63.76 156.43 47.6 195.69 63.86"/><polygon class="cls-4" points="172.69 86.86 156.43 70.45 156.43 47.6 172.69 86.86"/><polygon class="cls-4" points="140.18 86.86 140.28 63.76 156.43 47.6 140.18 86.86"/><polygon class="cls-4" points="117.18 63.86 133.59 47.6 156.43 47.6 117.18 63.86"/><polygon class="cls-7" points="133.59 47.6 117.18 31.34 156.44 47.6 133.59 47.6"/><polygon class="cls-7" points="140.28 31.45 156.44 47.6 140.18 8.35 140.28 31.45"/><polygon class="cls-7" points="156.44 24.76 156.44 47.6 172.69 8.35 156.44 24.76"/><polygon class="cls-7" points="172.59 31.45 195.69 31.34 156.44 47.6 172.59 31.45"/><polygon class="cls-4" points="117.18 31.34 140.28 31.45 156.44 47.6 117.18 31.34"/><polygon class="cls-4" points="140.18 8.35 156.44 24.76 156.44 47.6 140.18 8.35"/><polygon class="cls-4" points="172.69 8.35 172.59 31.45 156.44 47.6 172.69 8.35"/><polygon class="cls-4" points="195.69 31.34 179.28 47.6 156.44 47.6 195.69 31.34"/><path class="cls-5" d="M110.08,389.66V357.07a7,7,0,0,1,2.06-5l23-23a7,7,0,0,1,5-2.06h32.59a7,7,0,0,1,5,2.06l23,23a7,7,0,0,1,2.06,5v32.59a7,7,0,0,1-2.06,5l-23,23a7,7,0,0,1-5,2.06H140.14a7,7,0,0,1-5-2.06l-23-23A7,7,0,0,1,110.08,389.66Z"/><path class="cls-8" d="M108.83,390.1V356.63a7.16,7.16,0,0,1,2.11-5.1l23.66-23.66a7.17,7.17,0,0,1,5.1-2.11h33.46a7.17,7.17,0,0,1,5.1,2.11l23.66,23.66a7.16,7.16,0,0,1,2.11,5.1V390.1a7.16,7.16,0,0,1-2.11,5.1l-23.66,23.66a7.16,7.16,0,0,1-5.1,2.11H139.7a7.16,7.16,0,0,1-5.1-2.11L110.94,395.2A7.16,7.16,0,0,1,108.83,390.1Zm91.51-33.46a3.49,3.49,0,0,0-1-2.48l-23.66-23.66a3.49,3.49,0,0,0-2.48-1H139.7a3.49,3.49,0,0,0-2.48,1l-23.66,23.66a3.49,3.49,0,0,0-1,2.48V390.1a3.49,3.49,0,0,0,1,2.48l23.66,23.66a3.49,3.49,0,0,0,2.48,1h33.46a3.49,3.49,0,0,0,2.48-1l23.66-23.66a3.49,3.49,0,0,0,1-2.48Z"/><polygon class="cls-4" points="142.86 349.82 183.63 373.36 142.83 396.88 142.86 349.82"/><polygon class="cls-8" points="156.46 389.05 142.86 396.89 142.82 381.18 156.45 373.36 156.46 389.05"/><polygon class="cls-7" points="156.46 404.77 142.86 412.61 142.82 396.89 156.45 389.07 156.46 404.77"/><polygon class="cls-4" points="142.83 396.88 129.23 404.72 129.2 389.01 142.82 381.18 142.83 396.88"/><polygon class="cls-4" points="156.44 404.77 170.03 412.61 170.07 396.89 156.45 389.07 156.44 404.77"/><polygon class="cls-7" points="170.03 396.89 183.63 404.73 183.66 389.02 170.04 381.2 170.03 396.89"/><polygon class="cls-4" points="156.46 341.96 142.86 334.12 142.82 349.83 156.45 357.66 156.46 341.96"/><polygon class="cls-7" points="142.87 349.82 129.27 341.98 129.23 357.69 142.86 365.51 142.87 349.82"/><polygon class="cls-7" points="156.44 341.96 170.03 334.12 170.07 349.83 156.45 357.66 156.44 341.96"/><polygon class="cls-8" points="142.86 349.82 156.44 357.66 156.45 373.36 142.86 365.51 142.86 349.82"/><polygon class="cls-8" points="183.62 373.36 170.04 381.2 156.45 373.36 170.04 365.51 183.62 373.36"/><polygon class="cls-4" points="197.22 381.2 183.63 389.04 170.04 381.2 183.63 373.36 197.22 381.2"/><polygon class="cls-4" points="170.03 349.81 183.63 341.98 183.66 357.69 170.04 365.51 170.03 349.81"/><polygon class="cls-7" points="197.22 365.51 183.63 357.67 170.04 365.51 183.63 373.36 197.22 365.51"/><polygon class="cls-7" points="142.82 381.18 129.24 389.02 115.64 381.18 129.24 373.34 142.82 381.18"/><polygon class="cls-4" points="142.86 365.51 129.27 373.36 115.68 365.51 129.27 357.67 142.86 365.51"/><polygon class="cls-5" points="170.04 381.2 156.46 389.05 170.03 396.89 170.04 381.2"/><polygon class="cls-5" points="142.86 365.51 129.27 373.36 142.82 381.18 142.86 365.51"/><polygon class="cls-5" points="170.04 365.51 156.44 357.66 170.03 349.82 170.04 365.51"/><path class="cls-5" d="M108.61,712.77V679.31a7.16,7.16,0,0,1,2.11-5.1l23.66-23.66a7.17,7.17,0,0,1,5.1-2.11h33.46a7.17,7.17,0,0,1,5.1,2.11l23.66,23.66a7.16,7.16,0,0,1,2.11,5.1v33.46a7.16,7.16,0,0,1-2.11,5.1L178,741.53a7.16,7.16,0,0,1-5.1,2.11H139.48a7.16,7.16,0,0,1-5.1-2.11l-23.66-23.66A7.16,7.16,0,0,1,108.61,712.77Z"/><path class="cls-2" d="M108.61,712.77V679.31a7.16,7.16,0,0,1,2.11-5.1l23.66-23.66a7.17,7.17,0,0,1,5.1-2.11h33.46a7.17,7.17,0,0,1,5.1,2.11l23.66,23.66a7.16,7.16,0,0,1,2.11,5.1v33.46a7.16,7.16,0,0,1-2.11,5.1L178,741.53a7.16,7.16,0,0,1-5.1,2.11H139.48a7.16,7.16,0,0,1-5.1-2.11l-23.66-23.66A7.16,7.16,0,0,1,108.61,712.77Zm91.51-33.46a3.49,3.49,0,0,0-1-2.48l-23.66-23.66a3.49,3.49,0,0,0-2.48-1H139.48a3.49,3.49,0,0,0-2.48,1l-23.66,23.66a3.49,3.49,0,0,0-1,2.48v33.46a3.49,3.49,0,0,0,1,2.48L137,738.92a3.49,3.49,0,0,0,2.48,1h33.46a3.49,3.49,0,0,0,2.48-1l23.66-23.66a3.49,3.49,0,0,0,1-2.48Z"/><polygon class="cls-3" points="179.06 705.5 179.06 696.04 179.06 686.58 165.68 673.2 146.75 673.2 133.37 686.58 133.37 696.04 133.37 705.5 140.06 712.19 146.75 718.88 156.21 718.88 165.68 718.88 172.37 712.19 179.06 705.5"/><rect class="cls-1" x="133.49" y="673.32" width="45.44" height="45.44" transform="translate(758.85 1077.76) rotate(135)"/><rect class="cls-1" x="133.49" y="673.32" width="45.44" height="45.44" transform="translate(312.42 1392.08) rotate(180)"/><polygon class="cls-2" points="179.06 696.04 195.47 712.3 156.21 696.04 179.06 696.04"/><polygon class="cls-2" points="172.37 712.19 156.21 696.04 172.47 735.29 172.37 712.19"/><polygon class="cls-2" points="156.21 718.88 156.21 696.04 139.95 735.29 156.21 718.88"/><polygon class="cls-2" points="140.06 712.19 116.96 712.3 156.21 696.04 140.06 712.19"/><polygon class="cls-4" points="195.47 712.3 172.37 712.19 156.21 696.04 195.47 712.3"/><polygon class="cls-4" points="172.47 735.29 156.21 718.88 156.21 696.04 172.47 735.29"/><polygon class="cls-4" points="139.95 735.29 140.06 712.19 156.21 696.04 139.95 735.29"/><polygon class="cls-4" points="116.96 712.3 133.37 696.04 156.21 696.04 116.96 712.3"/><polygon class="cls-2" points="133.37 696.04 116.96 679.78 156.21 696.04 133.37 696.04"/><polygon class="cls-2" points="140.06 679.89 156.21 696.04 139.95 656.78 140.06 679.89"/><polygon class="cls-2" points="156.21 673.2 156.21 696.04 172.47 656.78 156.21 673.2"/><polygon class="cls-2" points="172.37 679.89 195.47 679.78 156.21 696.04 172.37 679.89"/><polygon class="cls-4" points="116.96 679.78 140.06 679.89 156.21 696.04 116.96 679.78"/><polygon class="cls-4" points="139.95 656.78 156.21 673.2 156.21 696.04 139.95 656.78"/><polygon class="cls-4" points="172.47 656.78 172.37 679.89 156.21 696.04 172.47 656.78"/><polygon class="cls-4" points="195.47 679.78 179.06 696.04 156.21 696.04 195.47 679.78"/><path class="cls-8" d="M182.33,660.36"/></g></g></svg>