<svg xmlns="http://www.w3.org/2000/svg" viewBox="0 0 95.21 95.21"><defs><style>.cls-1{fill:#c19968;}.cls-2{fill:#7e161b;}.cls-3{fill:#fef0e3;}.cls-4{fill:#a15b2a;}</style></defs><title>hasbaya-icono-web</title><g id="Capa_2" data-name="Capa 2"><g id="Layer_1" data-name="Layer 1"><path class="cls-1" d="M0,64.34V30.87a7.16,7.16,0,0,1,2.11-5.1L25.77,2.11A7.17,7.17,0,0,1,30.87,0H64.34a7.17,7.17,0,0,1,5.1,2.11L93.1,25.77a7.16,7.16,0,0,1,2.11,5.1V64.34a7.16,7.16,0,0,1-2.11,5.1L69.43,93.1a7.16,7.16,0,0,1-5.1,2.11H30.87a7.16,7.16,0,0,1-5.1-2.11L2.11,69.43A7.16,7.16,0,0,1,0,64.34Z"/><path class="cls-2" d="M0,64.34V30.87a7.16,7.16,0,0,1,2.11-5.1L25.77,2.11A7.17,7.17,0,0,1,30.87,0H64.34a7.17,7.17,0,0,1,5.1,2.11L93.1,25.77a7.16,7.16,0,0,1,2.11,5.1V64.34a7.16,7.16,0,0,1-2.11,5.1L69.43,93.1a7.16,7.16,0,0,1-5.1,2.11H30.87a7.16,7.16,0,0,1-5.1-2.11L2.11,69.43A7.16,7.16,0,0,1,0,64.34ZM91.51,30.87a3.49,3.49,0,0,0-1-2.48L66.82,4.73a3.49,3.49,0,0,0-2.48-1H30.87a3.49,3.49,0,0,0-2.48,1L4.73,28.39a3.49,3.49,0,0,0-1,2.48V64.34a3.49,3.49,0,0,0,1,2.48L28.39,90.48a3.49,3.49,0,0,0,2.48,1H64.34a3.49,3.49,0,0,0,2.48-1L90.48,66.82a3.49,3.49,0,0,0,1-2.48Z"/><polygon class="cls-3" points="34.03 24.06 74.8 47.59 34 71.12 34.03 24.06"/><polygon class="cls-2" points="47.63 63.29 34.03 71.13 33.99 55.42 47.61 47.59 47.63 63.29"/><polygon class="cls-4" points="47.63 79 34.03 86.84 33.99 71.13 47.61 63.31 47.63 79"/><polygon class="cls-3" points="34 71.12 20.4 78.96 20.37 63.24 33.99 55.42 34 71.12"/><polygon class="cls-3" points="47.6 79 61.2 86.84 61.24 71.13 47.62 63.31 47.6 79"/><polygon class="cls-4" points="61.2 71.13 74.8 78.97 74.83 63.26 61.21 55.44 61.2 71.13"/><polygon class="cls-3" points="47.63 16.2 34.03 8.36 33.99 24.07 47.61 31.9 47.63 16.2"/><polygon class="cls-4" points="34.04 24.06 20.44 16.22 20.4 31.93 34.03 39.75 34.04 24.06"/><polygon class="cls-4" points="47.6 16.2 61.2 8.36 61.24 24.07 47.62 31.9 47.6 16.2"/><polygon class="cls-2" points="34.03 24.06 47.61 31.9 47.61 47.59 34.03 39.75 34.03 24.06"/><polygon class="cls-2" points="74.79 47.59 61.21 55.44 47.61 47.59 61.21 39.75 74.79 47.59"/><polygon class="cls-3" points="88.39 55.44 74.8 63.28 61.21 55.44 74.8 47.59 88.39 55.44"/><polygon class="cls-3" points="61.2 24.05 74.79 16.21 74.83 31.93 61.2 39.75 61.2 24.05"/><polygon class="cls-4" points="88.38 39.75 74.8 31.91 61.21 39.75 74.8 47.59 88.38 39.75"/><polygon class="cls-4" points="33.99 55.42 20.41 63.26 6.81 55.42 20.41 47.58 33.99 55.42"/><polygon class="cls-3" points="34.03 39.75 20.44 47.59 6.85 39.75 20.44 31.91 34.03 39.75"/><polygon class="cls-1" points="61.21 55.44 47.63 63.29 61.2 71.13 61.21 55.44"/><polygon class="cls-1" points="34.03 39.75 20.44 47.59 33.99 55.42 34.03 39.75"/><polygon class="cls-1" points="61.21 39.75 47.61 31.9 61.2 24.06 61.21 39.75"/></g></g></svg>