<svg xmlns="http://www.w3.org/2000/svg" viewBox="0 0 252.01 79.73"><defs><style>.cls-1{fill:#f6e4d8;}</style></defs><title>hasbaya-logo</title><g id="Capa_2" data-name="Capa 2"><g id="Layer_1" data-name="Layer 1"><path class="cls-1" d="M0,11.93,11.68,0V39.37l7.14-7.21h1.31a11.6,11.6,0,0,1,8.49,3.53,11.59,11.59,0,0,1,3.5,8.52v4.69h7.4v2.15A5.06,5.06,0,0,1,38,54.83a5.16,5.16,0,0,1-3.8,1.59H24.79V44.23a4.68,4.68,0,0,0-4.66-4.66H11.68V56.41H4.25l0-44.49H.05"/><path class="cls-1" d="M71.19,54.2a7.21,7.21,0,0,1-5.32,2.21h-7.1v-7.5l-7.43,7.46-.89,0a12,12,0,0,1-8.65-3.53,12,12,0,0,1,0-17.17,12,12,0,0,1,8.65-3.53H66.24V48.92h7.13A7.18,7.18,0,0,1,71.19,54.2ZM58.77,39.67H50.45A4.7,4.7,0,0,0,47,41.06a4.47,4.47,0,0,0,0,6.47,4.7,4.7,0,0,0,3.47,1.39h8.32V39.67Z"/><path class="cls-1" d="M72,48.92h7.43v7.6a2.93,2.93,0,0,0,.83,2,2.85,2.85,0,0,0,2,.83h17.9a2.85,2.85,0,0,0,2-.83,2.79,2.79,0,0,0,.83-2V55.19a2.82,2.82,0,0,0-2.84-2.84H98.87v0H94.11a10.15,10.15,0,0,1-7.3-2.94,9.64,9.64,0,0,1-3-7.13,9.51,9.51,0,0,1,3-7.1,10,10,0,0,1,7.3-2.94h11l-7.41,7.43H94.11A2.71,2.71,0,0,0,92,40.5,2.43,2.43,0,0,0,92,44a2.69,2.69,0,0,0,2.11.83h6.11a9.88,9.88,0,0,1,8.16,4.06h7.5v2.15a5.09,5.09,0,0,1-1.59,3.77,5.14,5.14,0,0,1-3.76,1.59v.1a10,10,0,0,1-3,7.33,9.82,9.82,0,0,1-7.27,3H82.32A10.26,10.26,0,0,1,72,56.51Z"/><path class="cls-1" d="M123.34,0V39.64l7.79-7.46h3.27a12,12,0,0,1,8.65,3.53,11.5,11.5,0,0,1,3.63,8.59,11.33,11.33,0,0,1-.92,4.62h8.45a7.5,7.5,0,0,1-7.46,7.5H115.87V11.93h-4.19Zm0,48.92H134.4a4.7,4.7,0,0,0,3.47-1.39,4.47,4.47,0,0,0,0-6.47,4.7,4.7,0,0,0-3.47-1.39H123.34Z"/><path class="cls-1" d="M185.92,54.2a7.21,7.21,0,0,1-5.32,2.21h-7.1v-7.5l-7.39,7.45-.93,0a12,12,0,0,1-8.65-3.53,12,12,0,0,1,0-17.17,12,12,0,0,1,8.65-3.53H181V48.92h7.13A7.18,7.18,0,0,1,185.92,54.2ZM173.5,39.67h-8.32a4.7,4.7,0,0,0-3.47,1.39,4.47,4.47,0,0,0,0,6.47,4.7,4.7,0,0,0,3.47,1.39h8.32V39.67Z"/><path class="cls-1" d="M249.83,54.2a7.21,7.21,0,0,1-5.32,2.21h-7.1v-7.5l-7.8,7.46-.52,0a12,12,0,0,1-8.65-3.53,12,12,0,0,1,0-17.17,12,12,0,0,1,8.65-3.53h15.79V48.92H252A7.18,7.18,0,0,1,249.83,54.2ZM237.41,39.67h-8.32a4.7,4.7,0,0,0-3.47,1.39,4.47,4.47,0,0,0,0,6.47,4.7,4.7,0,0,0,3.47,1.39h8.32V39.67Z"/><polygon class="cls-1" points="149.78 62.22 155.43 67.86 149.78 73.55 144.17 67.86 149.78 62.22"/><path class="cls-1" d="M210.89,48.92V32.17h0V24.9L203.42,32V44.23a5.11,5.11,0,0,1-1.45,3.4,4.4,4.4,0,0,1-3.14,1.29,4.45,4.45,0,0,1-3.24-1.39,4.7,4.7,0,0,1-1.39-3.47V32.21h-7.43V44.06a12,12,0,0,0,3.5,8.69,11.34,11.34,0,0,0,8.55,3.67,11.87,11.87,0,0,0,4.59-.92V67.38A4.7,4.7,0,0,1,202,70.85a4.38,4.38,0,0,1-3.2,1.39,4.52,4.52,0,0,1-4.1-2.61h0L189.35,75a13.21,13.21,0,0,0,1.72,1.87,11.86,11.86,0,0,0,16.32-.79,12.15,12.15,0,0,0,3.5-8.69v-11h1.88a5.16,5.16,0,0,0,3.73-1.52,5.27,5.27,0,0,0,1.62-3.8V48.92Z"/><polygon class="cls-1" points="176.69 62.22 182.34 67.86 176.69 73.55 171.07 67.86 176.69 62.22"/><polygon class="cls-1" points="187.92 62.22 193.57 67.86 187.92 73.55 182.31 67.86 187.92 62.22"/></g></g></svg>