<svg xmlns="http://www.w3.org/2000/svg" viewBox="0 0 187 51.97"><defs><style>.cls-1{fill:#f6e4d8;}</style></defs><title>hasbaya-footer</title><g id="Capa_2" data-name="Capa 2"><g id="Layer_1" data-name="Layer 1"><path class="cls-1" d="M161.46,7.68h0c-2.06-1.42-4.25-1.71-6-.8s-2.75,2.82-2.75,5.37V27.18h5.73V12.54l20.75,14.71c-.3.36-.64.73-1,1.1a11.32,11.32,0,0,1-2.31,1.93,5.43,5.43,0,0,1-2.8,1h-23A5.29,5.29,0,0,1,146.55,30a4.37,4.37,0,0,1-1.5-3.19L145,0,139.3,5.78V27l0,.24h0a9.66,9.66,0,0,0,3.2,6.78A10.63,10.63,0,0,0,150.06,37h23c3.94,0,7.19-2.51,9.22-4.62.53-.53,1-1.07,1.42-1.55a26.66,26.66,0,0,0,1.72-2.34l.27-.4L187,25.78Z"/><path class="cls-1" d="M133.07,8.89a8.36,8.36,0,0,0-5.76-2.34h-.76L103.24,19.19v6.49l24.62-13.35a2.47,2.47,0,0,1,1.83,2.32V26.59a4.09,4.09,0,0,1-1.82,3,9.45,9.45,0,0,1-5.46,1.62H102A5.29,5.29,0,0,1,98.5,30,4.37,4.37,0,0,1,97,26.76l0-11.38-.1.11-5.62,5.62v.16h0v9.51l-.55.16-.11,0-.48.1-.27,0-.37,0c-.23,0-.45,0-.68,0h-9A7.73,7.73,0,0,1,74.34,29a7.64,7.64,0,0,1-2.19-5V12.46l0,0v0l-2,2-3.86,3.81v5.29a7.57,7.57,0,0,1-1.74,4.83A7.18,7.18,0,0,1,64,29a7.52,7.52,0,0,1-5.38,2.24H46.56a7.6,7.6,0,0,1-7.63-7.63V12.46l-5.88,5.89v5.23a7.67,7.67,0,0,1-7.63,7.63H13.36a7.6,7.6,0,0,1-7.63-7.63V0L0,5.73V23.58A13.3,13.3,0,0,0,13.36,36.93H25.42a13.24,13.24,0,0,0,9.44-3.87A13,13,0,0,0,36,31.76a13,13,0,0,0,1.13,1.3,13.4,13.4,0,0,0,9.44,3.87H58.63l.8,0h0l.43,0h0l.83-.1h0a13.18,13.18,0,0,0,5.75-2.36h0q.4-.29.77-.61l.11-.09c.24-.21.48-.43.71-.66a13,13,0,0,0,1.13-1.3,13,13,0,0,0,1.13,1.3c.29.29.6.56.91.82h0a13.37,13.37,0,0,0,8.51,3h9q.49,0,1,0c.33,0,.65-.06,1-.11h0a13.48,13.48,0,0,0,1.43-.29h0l.15,0a13.46,13.46,0,0,0,2.34-.88l0,0h0l.33-.17h0l.37-.2.25-.16A10.89,10.89,0,0,0,102,37h20.4a15.4,15.4,0,0,0,4.75-.71,11.63,11.63,0,0,0,7-5.31,8.26,8.26,0,0,0,1.21-4.36V14.65A8.36,8.36,0,0,0,133.07,8.89Z"/><polygon class="cls-1" points="67.83 42.59 72.5 47.27 67.83 51.97 63.17 47.27 67.83 42.59"/><polygon class="cls-1" points="28.91 42.59 33.58 47.27 28.91 51.97 24.25 47.27 28.91 42.59"/><polygon class="cls-1" points="38.21 42.59 42.89 47.27 38.21 51.97 33.56 47.27 38.21 42.59"/></g></g></svg>