<svg xmlns="http://www.w3.org/2000/svg" viewBox="0 0 87.14 118.95"><defs><style>.cls-1{fill:#7e161b;}</style></defs><title>icon-update</title><g id="Capa_2" data-name="Capa 2"><g id="Layer_1" data-name="Layer 1"><path class="cls-1" d="M80.29,82.75c-2.65-2.66-5.15-5.16-7.61-7.71-.18-.19-.1-.79.06-1.1A32.59,32.59,0,0,0,50.81,27.73c-2-.44-4.05-.58-6.08-.87-.91-.13-1.27.13-1.25,1.15.05,4.6,0,9.2,0,13.8q0,.53,0,1.06L22.06,21.41,43.47,0V15.82C62.76,17,76.69,25.86,84,43.75,89.39,57.1,87.67,70.18,80.29,82.75Z"/><path class="cls-1" d="M43.54,119c0-.29,0-.61,0-.94,0-4.67,0-9.33,0-14,0-.81-.22-1-1-1.07A42.59,42.59,0,0,1,12.32,89.81,41.89,41.89,0,0,1,.67,67,43,43,0,0,1,6.13,37.24c.17-.28.35-.55.67-1l5.09,5.25c.69.71,1.37,1.44,2.11,2.1a1.07,1.07,0,0,1,.25,1.52A31.75,31.75,0,0,0,10.87,60,32.45,32.45,0,0,0,34,90.65a66.78,66.78,0,0,0,8.38,1.45,7.82,7.82,0,0,0,1.11,0v-16L65,97.57Z"/></g></g></svg>