<svg xmlns="http://www.w3.org/2000/svg" viewBox="0 0 126.04 126"><defs><style>.cls-1{fill:#7e161b;}</style></defs><title>icon-read</title><g id="Capa_2" data-name="Capa 2"><g id="Layer_1" data-name="Layer 1"><path class="cls-1" d="M77.43,70.69c1.2,1.13,2.38,2.32,3.67,3.4a2,2,0,0,0,1.5.27A9.37,9.37,0,0,1,91.72,77q15.7,15.67,31.37,31.37c4,4,3.9,9.64-.09,13.71-3.78,3.85-7.62,4.9-11.65,3a11.46,11.46,0,0,1-3.13-2.23C97.94,112.62,87.71,102.33,77.43,92.1a9.83,9.83,0,0,1-3-9.65,2.18,2.18,0,0,0-.47-1.6c-1-1.21-2.12-2.33-3.22-3.52C59.58,85.7,47.38,88.7,34,85.77A42.1,42.1,0,0,1,8.32,68.94a43.41,43.41,0,0,1,5.37-57.16c15.53-14.84,40-15.76,57-2.22A43.75,43.75,0,0,1,77.43,70.69ZM9.78,43.34A33.68,33.68,0,1,0,43.57,9.73,33.74,33.74,0,0,0,9.78,43.34Z"/></g></g></svg>